<svg width="30" height="27" viewBox="0 0 30 27" fill="none" xmlns="http://www.w3.org/2000/svg">
<path d="M6.45605 16.1123C7.43164 13.6756 10.2159 13.6755 11.1914 16.1123L11.5635 17.0439L11.8076 17.6533H26.4707V26.4707H3.5293C1.58011 26.4706 0 24.4964 0 22.0615C0.000100555 19.6267 1.58017 17.6534 3.5293 17.6533H5.83984L6.08301 17.0439L6.45605 16.1123ZM26.4707 0C28.4199 5.23608e-05 30 1.97428 30 4.40918C29.9999 6.84395 28.4198 8.81733 26.4707 8.81738H24.1602L23.917 9.42676L23.5439 10.3584C22.5683 12.7951 19.7841 12.7952 18.8086 10.3584L18.4365 9.42676L18.1924 8.81738H3.5293V0H26.4707Z" fill="black"/>
</svg>
